HIERARCHY
ROOT hip
{
	OFFSET 0.000000 0.000000 0.000000 
	CHANNELS 6 Xposition Yposition Zposition Xrotation Zrotation Yrotation
	JOINT abdomen
	{
		OFFSET 0.000000 3.402643 0.000000 
		CHANNELS 3 Xrotation Zrotation Yrotation
		JOINT chest
		{
			OFFSET 0.000000 8.438565 -0.680529 
			CHANNELS 3 Xrotation Zrotation Yrotation
			JOINT neck
			{
				OFFSET 0.000000 10.207942 -0.272212 
				CHANNELS 3 Xrotation Zrotation Yrotation
				JOINT head
				{
					OFFSET 0.000000 3.130431 0.000000 
					CHANNELS 3 Xrotation Zrotation Yrotation
					End Site
					{
						OFFSET 0.000000 3.130435 0.000000 
					}
				}
			}
			JOINT lCollar
			{
				OFFSET 3.470700 6.669187 -0.816635 
				CHANNELS 3 Yrotation Zrotation Xrotation
				JOINT lShldr
				{
					OFFSET 3.198488 0.000000 0.000000 
					CHANNELS 3 Zrotation Yrotation Xrotation
					JOINT lForeArm
					{
						OFFSET 10.139888 0.000000 0.000000 
						CHANNELS 3 Yrotation Zrotation Xrotation
						JOINT lHand
						{
							OFFSET 8.370511 0.000000 0.000000 
							CHANNELS 3 Zrotation Yrotation Xrotation
							End Site
							{
								OFFSET 4.083176 0.000000 0.000000 
							}
						}
					}
				}
			}
			JOINT rCollar
			{
				OFFSET -3.470700 6.669187 -0.816635 
				CHANNELS 3 Yrotation Zrotation Xrotation
				JOINT rShldr
				{
					OFFSET -3.198488 0.000000 0.000000 
					CHANNELS 3 Zrotation Yrotation Xrotation
					JOINT rForeArm
					{
						OFFSET -10.139888 0.000000 0.000000 
						CHANNELS 3 Yrotation Zrotation Xrotation
						JOINT rHand
						{
							OFFSET -8.370511 0.000000 0.000000 
							CHANNELS 3 Zrotation Yrotation Xrotation
							End Site
							{
								OFFSET -4.083176 0.000000 0.000000 
							}
						}
					}
				}
			}
		}
	}
	JOINT lThigh
	{
		OFFSET 5.308129 -1.633274 1.361059 
		CHANNELS 3 Xrotation Zrotation Yrotation
		JOINT lShin
		{
			OFFSET -2.041588 -20.007561 0.000000 
			CHANNELS 3 Xrotation Zrotation Yrotation
			JOINT lFoot
			{
				OFFSET 0.000000 -19.190928 -1.224953 
				CHANNELS 3 Xrotation Yrotation Zrotation
				End Site
				{
					OFFSET 0.000000 -2.449906 4.627600 
				}
			}
		}
	}
	JOINT rThigh
	{
		OFFSET -5.308129 -1.633274 1.361059 
		CHANNELS 3 Xrotation Zrotation Yrotation
		JOINT rShin
		{
			OFFSET 2.041588 -20.007561 0.000000 
			CHANNELS 3 Xrotation Zrotation Yrotation
			JOINT rFoot
			{
				OFFSET 0.000000 -19.190928 -1.224953 
				CHANNELS 3 Xrotation Yrotation Zrotation
				End Site
				{
					OFFSET 0.000000 -2.449906 4.627600 
				}
			}
		}
	}
}
MOTION
Frames: 16
Frame Time: 0.033333
-0.346074 52.450787 5.910923 10.195313 -1.572266 -11.894530 12.648064 -4.682242 2.446226 -13.339845 -0.732422 -2.578125 -0.009765 0.000000 0.000000 -8.808595 1.015625 -13.369143 2.000000 -2.000000 0.000000 -79.785156 31.669924 -40.043697 -54.902859 0.952219 0.152144 34.972336 25.662756 3.460346 -2.000000 2.000000 0.000000 88.847656 -23.193359 -24.169922 55.561317 -0.333044 0.433407 -7.575529 -62.405834 -16.147127 -19.523567 10.132978 -1.682099 63.378971 -2.710334 -5.297956 38.095127 -5.920789 21.184349 -12.689929 7.867255 1.760002 19.031307 5.467531 2.242543 2.702064 -26.545038 4.257238 
-0.665274 53.338982 10.224327 8.437500 0.341797 -14.189395 13.428551 -8.317674 6.127474 -13.359375 -1.250000 -2.490235 -0.009765 0.000000 0.000000 -7.421875 -4.707031 -14.169923 2.000000 -2.000000 0.000000 -82.597656 33.437500 -47.191879 -56.139381 0.795755 0.317776 35.899467 28.216078 5.189239 -2.000000 2.000000 0.000000 85.136719 -24.443359 -20.312500 55.397362 -0.542296 0.332962 -12.502026 -61.432034 -6.692711 -22.240932 9.655734 3.036734 62.337601 -3.129008 -5.048498 33.696682 -1.515485 16.057570 -4.146463 5.091851 3.270976 11.605853 5.717198 1.493049 10.548465 -25.392559 1.551364 
-1.038221 54.179489 14.452070 6.669922 2.431641 -16.581617 14.159882 -11.834049 9.621145 -13.359376 -1.777344 -2.236328 -0.009765 0.000000 0.000000 -5.371095 -9.980468 -15.283206 2.000000 -2.000000 0.000000 -85.097656 35.410156 -51.058800 -56.668541 0.606482 0.260588 37.802910 30.375668 6.249436 -2.000000 2.000000 0.000000 83.007813 -24.550779 -18.832178 55.398884 -0.392595 0.283173 -14.948615 -60.598328 -1.753555 -25.477365 9.433068 8.045890 61.471565 -3.148408 -5.129062 28.964220 2.822625 12.467870 1.833835 1.170843 4.393541 7.057558 5.873439 0.864970 23.518314 -21.346760 2.122088 
-1.545542 54.965466 18.465607 4.746094 4.365235 -18.984375 14.451493 -15.039227 12.460771 -13.359375 -2.128906 -1.953125 -0.009765 0.000000 0.000000 -3.652345 -14.414063 -15.849611 2.000000 -2.000000 0.000000 -85.615234 38.388672 -54.534954 -55.782631 0.804258 0.131590 39.366222 32.809258 5.816459 -2.000000 2.000000 0.000000 83.095703 -23.242188 -19.456980 55.384800 -0.403022 0.458592 -14.359034 -59.934494 -1.212871 -28.029339 9.292171 12.248261 59.658424 -3.159203 -5.095706 23.902119 6.649471 10.123099 6.391626 -3.160926 4.603177 1.971875 5.882733 0.498875 45.770493 -15.406248 2.564064 
-2.174934 57.208847 22.279448 2.998047 5.966797 -21.298826 14.612591 -17.577314 14.176597 -13.359376 -1.777344 -1.357422 -0.009765 0.000000 0.000000 -2.421876 -18.291014 -15.302736 2.000000 -2.000000 0.000000 -84.921875 42.451172 -58.177002 -54.207687 0.820369 0.238072 41.491905 34.592960 4.774754 -2.000000 2.000000 0.000000 82.832031 -21.962893 -19.905996 55.397118 -0.552623 0.342129 -12.120926 -59.209503 -3.224005 -29.972124 9.203394 15.560134 56.360691 -3.500497 -4.713387 18.465034 8.587263 9.079189 8.322640 -4.506200 4.988878 1.279755 5.862191 0.418639 47.502590 -13.774228 2.854625 
-2.853403 58.766197 26.008499 1.416016 7.353516 -23.553438 14.783799 -19.025776 13.588552 -13.349609 -0.566406 0.097560 -0.009765 0.000000 0.000000 -2.285156 -22.500000 -12.929689 2.000000 -2.000000 0.000000 -87.314453 44.824219 -62.529297 -52.811672 0.796101 -0.171097 42.444286 35.599174 3.632497 -2.000000 2.000000 0.000000 80.986328 -20.224609 -19.466267 55.381477 -0.352650 0.598503 -10.291209 -58.758293 -5.002913 -30.593924 8.739094 17.694830 49.998276 -3.887971 -4.369277 12.876550 8.431647 9.282600 7.926445 -4.538261 5.178463 2.663363 5.861091 0.560646 40.160507 -17.531940 6.673356 
-3.570447 58.620285 29.674265 0.351563 8.232413 -25.242764 15.000671 -19.448215 11.226410 -13.125000 1.318359 2.060771 -0.009765 0.000000 0.000000 -3.359376 -27.050783 -9.052735 2.000000 -2.000000 0.000000 -90.195313 46.259766 -64.973419 -52.091106 1.154624 0.101007 39.451485 35.364021 1.618736 -2.000000 2.000000 0.000000 78.417969 -18.691406 -17.532427 55.225929 -0.872497 0.127687 -9.312995 -58.513992 -6.443461 -29.943707 7.797688 18.156164 40.525230 -4.748231 -4.094396 8.116083 6.218768 9.634615 6.529237 -4.547221 4.476610 4.985615 5.823203 0.825160 27.308544 -21.208883 11.286841 
-4.315627 57.918045 33.298611 -0.205078 8.759766 -26.933594 15.257333 -19.474953 8.406884 -13.056642 3.398438 4.052735 -0.009765 0.000000 0.000000 -5.126954 -30.488281 -4.990234 2.000000 -2.000000 0.000000 -91.767578 47.900394 -66.308586 -51.746239 1.093904 0.231564 34.946728 33.754078 -0.004514 -2.000000 2.000000 0.000000 75.761719 -17.841799 -16.252993 55.934242 -0.863993 0.313860 -8.531930 -58.116199 -7.467416 -29.129572 6.786265 18.429092 30.465492 -4.962551 -3.366520 4.279801 3.735163 9.601380 5.504039 -4.780909 1.652549 7.095006 5.775529 1.068837 17.667709 -23.544022 12.296106 
-5.078455 56.692413 36.903152 0.166016 8.935546 -28.085938 15.586345 -19.185043 6.781197 -13.007813 4.589844 5.185546 -0.009765 0.000000 0.000000 -7.910157 -32.275391 -1.142578 2.000000 -2.000000 0.000000 -92.080078 47.617188 -67.483017 -52.093235 0.984276 0.032883 32.166241 32.206081 -1.043758 -2.000000 2.000000 0.000000 74.218750 -16.894531 -16.562502 57.511742 -0.647126 0.121471 -11.888857 -58.327419 -4.094366 -28.664272 5.952679 17.595848 23.081409 -5.414982 -2.326797 1.496284 1.878791 8.993223 4.820053 -5.864782 -5.915345 8.328911 5.662174 0.450525 11.516619 -20.431723 7.386002 
-5.848450 55.120449 40.509644 0.888672 8.584202 -28.846806 16.745132 -18.543114 7.003482 -13.564453 4.091797 4.511719 -0.009765 0.000000 0.000000 -11.484376 -32.353512 2.119140 2.000000 -2.000000 0.000000 -92.509766 43.925785 -71.174866 -53.512199 0.957849 -0.082904 31.752665 31.938955 -0.423809 -2.000000 2.000000 0.000000 74.130859 -15.527344 -18.056641 59.455238 -0.792775 0.103068 -15.260859 -58.864182 -1.224699 -29.404442 4.873606 17.305489 18.339472 -5.642189 -1.876097 1.932402 1.238846 9.086462 4.068025 -7.299317 -17.625118 10.268221 5.579891 0.956088 6.660685 -12.730115 -0.017021 
-6.615166 53.597195 44.139694 1.757813 8.427734 -29.070835 17.825798 -17.455139 8.519652 -14.472657 2.919922 2.832007 -0.009765 0.000000 0.000000 -13.964845 -30.722656 4.003906 2.000000 -2.000000 0.000000 -91.953125 38.740234 -74.564201 -55.615032 0.944206 0.181798 32.690163 32.115330 0.676651 -2.000000 2.000000 0.000000 74.521484 -14.345704 -21.425783 61.396408 -0.807728 0.190063 -19.961145 -59.362904 3.373677 -30.123787 3.894966 16.827089 15.127625 -5.682147 -1.548420 3.896861 1.578110 8.802753 4.723470 -8.092828 -25.329168 12.539583 5.353310 1.328550 2.037249 -7.411019 -2.912941 
-7.381262 51.450794 47.804493 2.480469 8.076173 -28.289644 17.502115 -16.367489 9.090631 -14.853517 2.060547 1.425781 -0.009765 0.000000 0.000000 -13.906252 -27.451170 4.726562 2.000000 -2.000000 0.000000 -90.751953 34.404297 -75.629250 -57.555462 0.908529 -0.089755 33.063915 31.159931 1.966732 -2.000000 2.000000 0.000000 75.888672 -14.199219 -25.734819 63.144592 -0.924131 0.173529 -22.155895 -59.363407 5.499697 -30.477448 2.870947 16.020872 12.823409 -5.694115 -1.637809 5.934021 2.315997 8.502645 8.797377 -7.685715 -26.261185 13.966726 5.237530 1.340955 -9.102343 -12.133370 -13.151716 
-8.155534 49.465519 51.492977 2.998047 8.242188 -25.214840 13.835612 -15.663186 7.935475 -13.798828 2.207031 1.152720 -0.009765 0.000000 0.000000 -9.492188 -21.894533 3.834250 2.000000 -2.000000 0.000000 -89.072266 32.539063 -73.940056 -58.608944 0.891919 -0.039871 31.557085 29.626638 1.518954 -2.000000 2.000000 0.000000 79.697266 -15.781249 -33.632813 64.208092 -0.906948 0.213511 -20.622902 -58.634388 4.401926 -29.392820 1.903680 15.400507 11.408107 -5.720521 -1.466358 4.742956 2.111811 7.547056 11.982913 -6.950668 -25.137112 15.730882 5.353634 1.532781 -14.700374 -20.910721 -19.663321 
-8.936743 48.627243 55.193974 3.544922 8.066406 -19.871675 8.772635 -15.061465 5.786689 -12.363281 2.851563 1.357908 -0.009765 0.000000 0.000000 -2.568359 -15.107421 2.370502 2.000000 -2.000000 0.000000 -87.666016 30.839844 -70.996094 -59.487118 0.893651 -0.010634 29.084215 27.862200 0.836168 -2.000000 2.000000 0.000000 84.863281 -18.701172 -43.997272 64.732384 -0.706120 -0.038498 -17.116949 -57.215466 1.993422 -31.612930 0.788821 14.673401 23.801382 -5.375279 -2.402346 -0.783063 -0.747151 9.479741 13.929787 -5.566128 -22.338827 18.033674 5.219907 2.072372 -6.610923 -30.878929 -20.434864 
-9.723597 48.956818 58.896057 3.710938 7.187500 -15.869141 5.994131 -14.160299 3.386310 -11.279297 3.671875 1.436172 -0.009765 0.000000 0.000000 3.544922 -8.447266 0.486847 2.000000 -2.000000 0.000000 -86.757813 28.232422 -66.689453 -60.370956 0.875967 0.185862 26.982697 25.752148 -0.327213 -2.000000 2.000000 0.000000 88.164063 -21.503906 -52.109375 65.079590 -0.687276 0.138653 -15.842286 -56.470264 1.255816 -27.982304 -0.138330 14.150780 26.080767 -5.157238 -2.586041 -1.966029 -3.198843 11.439828 12.179387 -6.355323 -18.649965 24.371832 5.122953 2.733007 19.642416 -29.318193 -10.629475 
-10.514840 50.984226 62.588055 2.998047 5.263672 -15.029295 7.707816 -12.178662 1.271055 -11.435547 4.355469 1.406992 -0.009765 0.000000 0.000000 6.328125 -2.988281 -1.240744 2.000000 -2.000000 0.000000 -85.498047 24.287107 -61.953129 -62.290596 0.701166 0.372308 26.331999 23.165558 -0.329269 -2.000000 2.000000 0.000000 88.222656 -24.287109 -55.013783 65.255386 -0.667779 0.139808 -19.976700 -57.076210 5.430952 -20.409008 -0.038998 12.474844 22.028078 -5.452207 -2.221170 0.359995 -3.777010 10.888721 0.808188 -6.906580 -13.379870 40.566120 4.177123 3.637778 30.361366 -31.977396 -6.371598 
